<svg width="20" height="20" viewBox="0 0 20 20" fill="none" xmlns="http://www.w3.org/2000/svg">
<g opacity="0.8">
<path fill-rule="evenodd" clip-rule="evenodd" d="M18.8081 7.41667C18.6831 7.16667 18.4248 7 18.1414 7H11.0914L11.8664 0.816667C11.9081 0.5 11.7331 0.183333 11.4331 0.0583333C11.3414 0.0166667 11.2414 0 11.1498 0C10.9331 0 10.7248 0.0916667 10.5831 0.258333L1.83309 10.7583C1.64976 10.975 1.61643 11.2833 1.73309 11.5333C1.84976 11.7917 2.11643 11.9583 2.39143 11.9583H9.44143L8.66643 18.1333C8.63309 18.4583 8.80809 18.7667 9.09976 18.9C9.39976 19.025 9.74976 18.9417 9.95809 18.6917L18.7081 8.19167C18.8831 7.975 18.9248 7.675 18.8081 7.41667ZM10.4248 15.85L10.9914 11.3167C11.0164 11.1083 10.9498 10.9 10.8164 10.7417C10.6748 10.5917 10.4748 10.5 10.2664 10.5H3.94976L10.1081 3.10833L9.54143 7.63333C9.51643 7.84167 9.58309 8.05 9.72476 8.20833C9.85809 8.36667 10.0581 8.45833 10.2664 8.45833H16.5831L10.4248 15.85Z" fill="white"/>
</g>
</svg>
