<!DOCTYPE svg PUBLIC "-//W3C//DTD SVG 1.1//EN" "http://www.w3.org/Graphics/SVG/1.1/DTD/svg11.dtd">
<!-- Uploaded to: SVG Repo, www.svgrepo.com, Transformed by: SVG Repo Mixer Tools -->
<svg width="800px" height="800px" viewBox="0 0 12 12" enable-background="new 0 0 12 12" id="Слой_1" version="1.1" xml:space="preserve" xmlns="http://www.w3.org/2000/svg" xmlns:xlink="http://www.w3.org/1999/xlink" fill="#000000">
<g id="SVGRepo_bgCarrier" stroke-width="0"/>
<g id="SVGRepo_tracerCarrier" stroke-linecap="round" stroke-linejoin="round"/>
<g id="SVGRepo_iconCarrier">
<path d="M6,0C2.6862793,0,0,2.6862793,0,6s2.6862793,6,6,6s6-2.6862793,6-6S9.3137207,0,6,0z M6.5,9.5h-1v-1h1V9.5z M7.2651367,6.1738281C6.7329102,6.5068359,6.5,6.6845703,6.5,7v0.5h-1V7c0-0.9023438,0.7138672-1.3486328,1.2348633-1.6738281 C7.2670898,4.9931641,7.5,4.8154297,7.5,4.5c0-0.5517578-0.4487305-1-1-1h-1c-0.5512695,0-1,0.4482422-1,1V5h-1V4.5 c0-1.1025391,0.8969727-2,2-2h1c1.1030273,0,2,0.8974609,2,2C8.5,5.4023438,7.7861328,5.8486328,7.2651367,6.1738281z" fill="#ffffff"/>
</g>
</svg>